# xmcd
#
# Track frame offsets:
#	150
#	15330
#	35320
#	51315
#	66725
#	82088
#	96716
#	111330
#	128250
#	143495
#	162125
#	181616
#
# Disc length: 2612 seconds
#
# Revision: 1
# Processed by: cddbd v1.5.2PL0 Copyright (c) Steve Scherf et al.
# Submitted via: audiograbber 1.83.01
#
DISCID=9b0a320c
DTITLE=Ronnie Dunn - Tattooed Heart
DYEAR=2016
DGENRE=Country
TTITLE0=Ain't No Trucks In Texas
TTITLE1=Damn Drunk
TTITLE2=I Worship The Woman You Walked On
TTITLE3=That's Why They Make Jack Daniels
TTITLE4=I Put That There
TTITLE5=Young Buck
TTITLE6=I Wanna Love Like That Again
TTITLE7=Still Feels Like Mexico
TTITLE8=Tattooed Heart
TTITLE9=This Old Heart
TTITLE10=Only Broken Heart In San Antone
TTITLE11=She Don't Honky Tonk No More
EXTD=
EXTT0=
EXTT1=
EXTT2=
EXTT3=
EXTT4=
EXTT5=
EXTT6=
EXTT7=
EXTT8=
EXTT9=
EXTT10=
EXTT11=
PLAYORDER=
